<svg xmlns="http://www.w3.org/2000/svg" width="20.616" height="20.616" viewBox="0 0 20.616 20.616">
  <path id="Icon_ionic-logo-linkedin" data-name="Icon ionic-logo-linkedin" d="M23.468,4.5H6.261A1.682,1.682,0,0,0,4.5,6.106V23.349a1.814,1.814,0,0,0,1.761,1.767h17.2a1.722,1.722,0,0,0,1.654-1.767V6.106A1.581,1.581,0,0,0,23.468,4.5ZM10.891,21.685H7.937V12.5h2.954ZM9.516,11.105H9.494A1.516,1.516,0,0,1,7.937,9.521,1.525,1.525,0,0,1,9.532,7.937a1.521,1.521,0,0,1,1.579,1.584A1.525,1.525,0,0,1,9.516,11.105ZM21.685,21.685H18.731V16.664c0-1.2-.43-2.025-1.5-2.025a1.616,1.616,0,0,0-1.514,1.09,1.989,1.989,0,0,0-.1.725v5.231H12.663V12.5h2.954V13.78a2.99,2.99,0,0,1,2.664-1.493c1.939,0,3.4,1.278,3.4,4.033v5.365Z" transform="translate(-4.5 -4.5)"/>
</svg>
