<svg id="Logo-Mapfry" xmlns="http://www.w3.org/2000/svg" width="107.109" height="31.987" viewBox="0 0 107.109 31.987">
  <path id="Path_1" data-name="Path 1" d="M301.741,416.774h3.56V402.533h6.111v-3.56h-9.672Z" transform="translate(-223.664 -391.926)"/>
  <path id="Path_2" data-name="Path 2" d="M200.92,416.774h3.56V402.533h7.12v14.241h3.56V402.533h7.121v14.241h3.56v-17.8H200.92Z" transform="translate(-200.92 -391.926)"/>
  <path id="Path_3" data-name="Path 3" d="M334.215,398.973h-4.272l-4.21,13.094-4.466-13.094h-4.272l6.93,17.8h0l-1.117,3.574h-5.085v3.56h7.7l2.229-7.134h.008l0-.011Z" transform="translate(-227.105 -391.926)"/>
  <path id="Path_4" data-name="Path 4" d="M289.5,396.918h5.13V400.1h-5.009v14.617l-3.562,0V400.1h-2.54V396.92h2.54v-3.767a3.386,3.386,0,0,1,3.362-3.279h.078c1.234-.007,5.52.008,5.52.008v3.551H289.5Z" transform="translate(-219.553 -389.874)"/>
  <path id="Path_5" data-name="Path 5" d="M251.044,413.384v-8.394c0-5.208-4.022-6.29-6.647-6.29-4.122,0-7.36,2.182-7.36,5.84h3.6c.118-1.763,1.606-2.785,3.735-2.785a2.848,2.848,0,0,1,3.075,3.08v1.052s-3.423.189-5.23.343c-3.036.258-5.772,1.91-5.772,5.66,0,3.326,2.613,5.275,5.865,5.275a5.84,5.84,0,0,0,5.373-3.316h.152l.034,2.894h5.664v-3.359Zm-3.53-3.832a4.938,4.938,0,0,1-.923,3.106,3.587,3.587,0,0,1-2.945,1.556,4.728,4.728,0,0,1-2.271-.448,1.541,1.541,0,0,1-.879-1.439v-1.677a1.234,1.234,0,0,1,1.188-1.387l5.83-.482Z" transform="translate(-208.934 -391.865)"/>
  <path id="Path_6" data-name="Path 6" d="M269.983,398.657a6.219,6.219,0,0,0-4.993,2.371v-1.972h-3.638v24.786h3.638v-9.257a6.6,6.6,0,0,0,4.614,2.227c3.974,0,7.169-2.478,7.169-8.879S274.017,398.657,269.983,398.657Zm2.733,10.854c0,1.858-.1,4.165-3.9,4.165-2.668,0-3.819-1.612-3.819-2.907v-6.106c0-1.6,1.677-2.869,3.819-2.869,3.263,0,3.9,1.87,3.9,3.641Z" transform="translate(-214.553 -391.855)"/>
</svg>
